# xmcd
#
# Track frame offsets: 
#        150
#        13410
#        27317
#        41212
#        54075
#        69545
#        83560
#        97117
#        110850
#        125450
#        139482
#        153510
#        166387
#        179352
#        194082
#        207145
#        222590
#        236222
#        249705
#        264115
#
# Disc length: 3696 seconds
#
# Revision: 2
# Processed by: cddbd v1.5.2PL0 Copyright (c) Steve Scherf et al.
# Submitted via: ExactAudioCopy v1.0b1
#
DISCID=330e6e14
DTITLE=Josh White - Josh White Blues Singer 1932-1936
DYEAR=1996
DGENRE=Blues
TTITLE0=New Milk Cow Blues (mono)
TTITLE1=Milk Cow Blues (mono)
TTITLE2=Black Man (mono)
TTITLE3=Friendless City Blues (mono)
TTITLE4=Lord, I Want To Die Easy (mono)
TTITLE5=Did You Read That Letter (mono)
TTITLE6=My Father Is A Husbandman (mono)
TTITLE7=Paul And Silas Bound In Jail (mono)
TTITLE8=Black And Evil Blues (mono)
TTITLE9=Howling Wolf Blues (mono)
TTITLE10=Greenville Sheik (mono)
TTITLE11=Double Crossing Woman (mono)
TTITLE12=Lazy Black Snake Blues (mono)
TTITLE13=Downhearted Man Blues (mono)
TTITLE14=Low Cotton (mono)
TTITLE15=Welfare Blues (mono)
TTITLE16=Stormy Weather No. 1 (mono)
TTITLE17=Silicosis Is Killin' Me (mono)
TTITLE18=Badly Mistreated Man (mono)
TTITLE19=Bed Spring Blues (mono)
EXTD=
EXTT0=
EXTT1=
EXTT2=
EXTT3=
EXTT4=
EXTT5=
EXTT6=
EXTT7=
EXTT8=
EXTT9=
EXTT10=
EXTT11=
EXTT12=
EXTT13=
EXTT14=
EXTT15=
EXTT16=
EXTT17=
EXTT18=
EXTT19=
PLAYORDER=
